<svg xmlns="http://www.w3.org/2000/svg" viewBox="0 0 480 296" font-family="Microsoft YaHei, Segoe UI, sans-serif">

<defs>
  <linearGradient id="gPaper" x1="0" y1="0" x2="0" y2="1">
    <stop offset="0" stop-color="#faf6ee"/><stop offset="1" stop-color="#ece3d2"/>
  </linearGradient>
  <linearGradient id="gSilver" x1="0" y1="0" x2="0" y2="1">
    <stop offset="0" stop-color="#fdfdfb"/><stop offset="0.5" stop-color="#e2ded5"/><stop offset="1" stop-color="#bfb9ab"/>
  </linearGradient>
  <linearGradient id="gTop" x1="0" y1="0" x2="0" y2="1">
    <stop offset="0" stop-color="#ffffff"/><stop offset="1" stop-color="#d6d1c6"/>
  </linearGradient>
  <linearGradient id="gLeather" x1="0" y1="0" x2="0" y2="1">
    <stop offset="0" stop-color="#403c37"/><stop offset="1" stop-color="#1f1d1a"/>
  </linearGradient>
  <linearGradient id="gDial" x1="0" y1="0" x2="0" y2="1">
    <stop offset="0" stop-color="#f0eee8"/><stop offset="1" stop-color="#b3ada0"/>
  </linearGradient>
  <radialGradient id="gGlass" cx="0.38" cy="0.32" r="0.8">
    <stop offset="0" stop-color="#9dc2de"/><stop offset="0.4" stop-color="#33566f"/><stop offset="1" stop-color="#0b1720"/>
  </radialGradient>
  <linearGradient id="gSky" x1="0" y1="0" x2="0" y2="1">
    <stop offset="0" stop-color="#6fb4ff"/><stop offset="1" stop-color="#d3edff"/>
  </linearGradient>
  <linearGradient id="gSunset" x1="0" y1="0" x2="0" y2="1">
    <stop offset="0" stop-color="#ff6f43"/><stop offset="0.5" stop-color="#ffb74d"/><stop offset="1" stop-color="#5c6bc0"/>
  </linearGradient>
  <linearGradient id="gNight" x1="0" y1="0" x2="0" y2="1">
    <stop offset="0" stop-color="#0a1230"/><stop offset="1" stop-color="#24386b"/>
  </linearGradient>
  <filter id="soft" x="-30%" y="-30%" width="160%" height="160%">
    <feDropShadow dx="0" dy="5" stdDeviation="7" flood-color="#000" flood-opacity="0.20"/>
  </filter>
  <filter id="blur"><feGaussianBlur stdDeviation="6"/></filter>
  <filter id="blurLite"><feGaussianBlur stdDeviation="2.4"/></filter>
  <marker id="arrow" markerWidth="12" markerHeight="12" refX="9" refY="4" orient="auto">
    <path d="M0,0 L9,4 L0,8 Z" fill="#5c7a4a"/>
  </marker>
</defs>

<rect width="480" height="296" fill="url(#gPaper)"/>
<g filter="url(#soft)"><rect x="20" y="70" width="440" height="206" rx="12" fill="#161b22" stroke="#2b3138" stroke-width="2"/></g>
<rect x="20" y="70" width="440" height="44" rx="12" fill="#222a33"/>
<rect x="20" y="98" width="440" height="16" fill="#222a33"/>
<text x="240" y="98" text-anchor="middle" fill="#fff" font-size="16" font-weight="600">MENU 五大类</text>
<text x="240" y="276" text-anchor="middle" fill="#5c6670" font-size="11">界面示意图（非官方截图）</text>
<rect x="34" y="126" width="412" height="32" rx="6" fill="#2f6f4f" stroke="#39d353"/>
<circle cx="52" cy="142" r="5" fill="#39d353"/>
<text x="70" y="147" fill="#eafbe9" font-size="14">相机 — 拍摄设置</text>
<rect x="34" y="166" width="412" height="32" rx="6" fill="#1d232b" stroke="#2b3138"/>
<circle cx="52" cy="182" r="5" fill="#586670"/>
<text x="70" y="187" fill="#c7cdd4" font-size="14">视频 — 录像</text>
<rect x="34" y="206" width="412" height="32" rx="6" fill="#1d232b" stroke="#2b3138"/>
<circle cx="52" cy="222" r="5" fill="#586670"/>
<text x="70" y="227" fill="#c7cdd4" font-size="14">播放 — 回放</text>
<rect x="34" y="246" width="412" height="32" rx="6" fill="#1d232b" stroke="#2b3138"/>
<circle cx="52" cy="262" r="5" fill="#586670"/>
<text x="70" y="267" fill="#c7cdd4" font-size="14">自定义 — 按钮 / 显示</text>
<rect x="34" y="286" width="412" height="32" rx="6" fill="#1d232b" stroke="#2b3138"/>
<circle cx="52" cy="302" r="5" fill="#586670"/>
<text x="70" y="307" fill="#c7cdd4" font-size="14">扳手 — 设置 / 格式化</text>
</svg>
